<svg xmlns="http://www.w3.org/2000/svg" xmlns:xlink="http://www.w3.org/1999/xlink" width="346" height="69" viewBox="0 0 346 69">
  <defs>
    <clipPath id="clip-path">
      <rect id="Rectangle_4" data-name="Rectangle 4" width="346" height="69" fill="none"/>
    </clipPath>
    <clipPath id="clip-CB_Logo">
      <rect width="346" height="69"/>
    </clipPath>
  </defs>
  <g id="CB_Logo" clip-path="url(#clip-CB_Logo)">
    <g id="Group_880" data-name="Group 880" transform="translate(300 112)">
      <g id="Group_4" data-name="Group 4" transform="translate(-300 -112)">
        <rect id="Rectangle_3" data-name="Rectangle 3" width="23.044" height="5.136" transform="translate(218.92 42.618)" fill="#fc4045"/>
        <g id="Group_2" data-name="Group 2">
          <g id="Group_1" data-name="Group 1" clip-path="url(#clip-path)">
            <path id="Path_1" data-name="Path 1" d="M215.734,16.973v-5c0-3.887,1.388-6.385,4.165-7.218l-1.111-3.332a12.58,12.58,0,0,0-6.247,3.748,11.708,11.708,0,0,0-2.221,6.8v5.137c0,3.609-1.527,5.275-4.442,5.275v4.165c3.054,0,4.442,1.8,4.442,5.275v5c.139,5.553,2.915,9.023,8.468,10.55l1.111-3.331c-2.638-.833-4.026-3.332-4.165-7.219v-5c0-3.609-1.388-6.108-4.026-7.5,2.638-1.249,4.026-3.748,4.026-7.358m13.882,2.776a4.765,4.765,0,0,1,4.3-1.943,4.406,4.406,0,0,1,3.471,1.388,5.385,5.385,0,0,1,1.527,3.609h5.414a9.964,9.964,0,0,0-2.915-6.941,10.192,10.192,0,0,0-7.357-2.638A10.607,10.607,0,0,0,225.59,16.7c-2.082,2.36-3.054,5.414-3.054,9.3v.555c0,4.026.972,7.219,3.054,9.579a10.607,10.607,0,0,0,8.468,3.471,11.217,11.217,0,0,0,5.136-1.249,12.052,12.052,0,0,0,3.748-3.193,8.979,8.979,0,0,0,1.527-4.442h-5.414a3.881,3.881,0,0,1-1.527,3.054,5.47,5.47,0,0,1-7.774-.833,10.7,10.7,0,0,1-1.527-6.108v-.972c-.139-2.776.417-4.859,1.388-6.108m26.1-2.637v-4.72a11.3,11.3,0,0,0-2.082-7.08,11.707,11.707,0,0,0-6.386-3.887l-.972,3.332c2.776.833,4.165,3.331,4.165,7.357v4.858c0,3.609,1.388,6.108,4.3,7.5-2.776,1.388-4.3,3.887-4.3,7.5v4.859c0,4.026-1.527,6.386-4.165,7.357l1.11,3.331a11.819,11.819,0,0,0,6.247-3.887,11.294,11.294,0,0,0,2.082-7.08V31.965c0-3.471,1.527-5.275,4.581-5.275V22.526q-4.581-.208-4.581-5.414m27.764-.694a10.875,10.875,0,0,0-8.329-3.332,11.2,11.2,0,0,0-6.108,1.666,11.08,11.08,0,0,0-4.164,4.581,15.321,15.321,0,0,0-1.527,6.8v.277a13.991,13.991,0,0,0,3.193,9.579A11,11,0,0,0,275.15,39.6a10.867,10.867,0,0,0,6.108-1.666,11.075,11.075,0,0,0,4.165-4.581,14.688,14.688,0,0,0,1.388-6.663V25.3a11.935,11.935,0,0,0-3.332-8.884M279.731,32.66a5.055,5.055,0,0,1-4.442,2.221,4.9,4.9,0,0,1-4.442-2.221,9.973,9.973,0,0,1-1.666-6.108q0-4.373,1.666-6.664a5.553,5.553,0,0,1,8.884,0A10.26,10.26,0,0,1,281.4,26q0,4.373-1.666,6.663m27.487-16.8a7.95,7.95,0,0,0-6.525-2.776,8.634,8.634,0,0,0-7.219,3.609,15.258,15.258,0,0,0-2.776,9.44c0,4.165.972,7.357,2.776,9.717a8.633,8.633,0,0,0,7.219,3.609,8.31,8.31,0,0,0,6.8-3.054l.278,2.638h5.136V2.952h-5.692Zm0,15.826a5.477,5.477,0,0,1-5.136,3.193,4.6,4.6,0,0,1-4.165-2.221,10.7,10.7,0,0,1-1.527-6.108,12.443,12.443,0,0,1,1.527-6.664,4.672,4.672,0,0,1,4.3-2.221,5.041,5.041,0,0,1,5,3.054Zm22.072-18.6a10.266,10.266,0,0,0-5.83,1.666,10.654,10.654,0,0,0-4.164,4.72,15.322,15.322,0,0,0-1.527,6.8v.694A12.828,12.828,0,0,0,321.1,36.13a11.922,11.922,0,0,0,8.746,3.471,12.7,12.7,0,0,0,5.692-1.249,10.938,10.938,0,0,0,4.026-3.471l-3.054-2.915a7.826,7.826,0,0,1-6.385,3.193,6.172,6.172,0,0,1-4.581-1.8,7.5,7.5,0,0,1-2.082-5h16.52V26c0-4.026-.972-7.219-2.776-9.44-1.8-2.36-4.581-3.471-7.913-3.471m5.137,10.828H323.6a8.622,8.622,0,0,1,1.8-4.581,4.753,4.753,0,0,1,3.748-1.666,5.126,5.126,0,0,1,3.748,1.527,7.2,7.2,0,0,1,1.527,4.3Zm29.013-2.776a8.072,8.072,0,0,0,3.749-2.915,7.347,7.347,0,0,0,1.249-4.165c0-3.054-.972-5.414-3.054-6.941-1.944-1.527-5-2.36-8.746-2.36H344.976V39.045h12.355c3.748,0,6.8-.833,8.746-2.638,2.082-1.666,3.054-4.165,3.054-7.357a8.531,8.531,0,0,0-1.527-5,7.636,7.636,0,0,0-4.165-2.915M350.807,9.615H356.5a7.433,7.433,0,0,1,4.442,1.111c.972.694,1.388,1.943,1.388,3.609a4.6,4.6,0,0,1-1.527,3.609,6.624,6.624,0,0,1-4.3,1.249h-5.83V9.615ZM361.773,32.8a6.181,6.181,0,0,1-4.3,1.388h-6.525V23.5h7.08q5.414.209,5.414,5.414c-.139,1.666-.555,3.054-1.666,3.887M385.1,13.086a10.266,10.266,0,0,0-5.83,1.666,10.654,10.654,0,0,0-4.164,4.72,15.321,15.321,0,0,0-1.527,6.8v.694A12.828,12.828,0,0,0,376.9,36.13a11.922,11.922,0,0,0,8.746,3.471,12.7,12.7,0,0,0,5.692-1.249,10.939,10.939,0,0,0,4.026-3.471l-3.054-2.915a7.827,7.827,0,0,1-6.386,3.193,6.171,6.171,0,0,1-4.581-1.8,7.5,7.5,0,0,1-2.082-5h16.52V26c0-4.026-.972-7.219-2.776-9.44-1.8-2.36-4.581-3.471-7.913-3.471m5.136,10.828H379.4a8.623,8.623,0,0,1,1.8-4.581,4.753,4.753,0,0,1,3.748-1.666,5.126,5.126,0,0,1,3.748,1.527,7.2,7.2,0,0,1,1.527,4.3Zm17.63,10.134a2.881,2.881,0,0,1-.555-2.082V17.806h4.442V13.641h-4.442V7.394h-5.692v6.247H397.45v4.165h4.165V32.243c0,4.859,2.221,7.219,6.525,7.219a11.7,11.7,0,0,0,3.748-.555V34.464a10.865,10.865,0,0,1-1.943.278,2.388,2.388,0,0,1-2.082-.694m15.964,0a2.882,2.882,0,0,1-.555-2.082V17.806h4.442V13.641h-4.442V7.394h-5.692v6.247h-4.165v4.165h4.165V32.243c0,4.859,2.221,7.219,6.525,7.219a11.7,11.7,0,0,0,3.748-.555V34.464a10.865,10.865,0,0,1-1.943.278,2.388,2.388,0,0,1-2.082-.694m18.741-20.962a10.266,10.266,0,0,0-5.831,1.666,10.653,10.653,0,0,0-4.165,4.72,15.327,15.327,0,0,0-1.527,6.8v.694a12.827,12.827,0,0,0,3.332,9.162,11.922,11.922,0,0,0,8.746,3.471,12.7,12.7,0,0,0,5.692-1.249,10.936,10.936,0,0,0,4.026-3.471l-3.054-2.915a7.828,7.828,0,0,1-6.386,3.193,6.172,6.172,0,0,1-4.581-1.8,7.5,7.5,0,0,1-2.082-5h16.519V26c0-4.026-.972-7.219-2.776-9.44a9.656,9.656,0,0,0-7.912-3.471M447.7,23.914H436.876a8.622,8.622,0,0,1,1.8-4.581,4.753,4.753,0,0,1,3.748-1.666,5.127,5.127,0,0,1,3.749,1.527,7.2,7.2,0,0,1,1.527,4.3Zm21.239-10.828a6.468,6.468,0,0,0-5.692,3.332l-.139-2.776H457.7v25.4h5.692V21.554a5.38,5.38,0,0,1,5.275-3.054,13.437,13.437,0,0,1,2.36.139V13.225c-.555,0-1.249-.139-2.082-.139" transform="translate(-125.64 -0.87)" fill="#494949"/>
            <path id="Path_2" data-name="Path 2" d="M380.725,140.392a2.94,2.94,0,0,0,.555-1.944,3.265,3.265,0,0,0-.972-2.637,4.554,4.554,0,0,0-2.915-.833h-3.748v11.661h1.527v-4.72h2.638l2.5,4.72h1.527V146.5l-2.637-5a2.149,2.149,0,0,0,1.527-1.11m-3.332.278h-2.221v-4.442h2.221a2.356,2.356,0,0,1,1.8.555,2.214,2.214,0,0,1,.555,1.666,1.792,1.792,0,0,1-.694,1.527,1.894,1.894,0,0,1-1.666.694m6.663-5.969a.963.963,0,0,0-.972.833.721.721,0,0,0,.278.555,1.007,1.007,0,0,0,1.388,0,1.051,1.051,0,0,0,.278-.555.721.721,0,0,0-.278-.555,1.06,1.06,0,0,0-.694-.277m-.694,11.939h1.388v-8.746h-1.388Zm8.746-4.443a4.618,4.618,0,0,0-1.8-.555,3.2,3.2,0,0,1-1.527-.555.84.84,0,0,1-.417-.833,1.262,1.262,0,0,1,.417-.972,1.817,1.817,0,0,1,3.054,1.111h1.388a2.521,2.521,0,0,0-.833-1.944,3.208,3.208,0,0,0-2.36-.694,3.532,3.532,0,0,0-2.221.694,2.444,2.444,0,0,0-.833,1.8,2.616,2.616,0,0,0,.278,1.11,3.006,3.006,0,0,0,.972.833,4.681,4.681,0,0,0,1.666.555,6.017,6.017,0,0,1,1.527.555,1.261,1.261,0,0,1,.416.972,1.048,1.048,0,0,1-.555.972c-.277.277-.694.277-1.249.277a2.071,2.071,0,0,1-1.388-.417,1.353,1.353,0,0,1-.555-1.249h-1.388a2.345,2.345,0,0,0,.417,1.388,2.215,2.215,0,0,0,1.249.972,3.846,3.846,0,0,0,1.8.417,4.3,4.3,0,0,0,2.36-.694,2.239,2.239,0,0,0,.833-1.8,4.058,4.058,0,0,0-.277-1.249c-.278-.139-.555-.416-.972-.694m6.385-4.442a2.789,2.789,0,0,0-1.8.555,7.278,7.278,0,0,0-1.388,1.527,5.984,5.984,0,0,0-.417,2.36v.278A4.322,4.322,0,0,0,396,145.529a3.385,3.385,0,0,0,2.776,1.111,3.554,3.554,0,0,0,3.193-1.666l-.833-.694a1.865,1.865,0,0,1-.972.833,2.062,2.062,0,0,1-1.249.278,2.445,2.445,0,0,1-1.8-.833,3.412,3.412,0,0,1-.694-2.082H402.1v-.555a4.406,4.406,0,0,0-.972-3.193,4.074,4.074,0,0,0-2.638-.972m2.082,3.748h-4.165a3.094,3.094,0,0,1,.694-1.8,1.928,1.928,0,0,1,1.388-.694,1.609,1.609,0,0,1,1.388.555,2.744,2.744,0,0,1,.694,1.943m13.327-.972a2.825,2.825,0,0,0-.833-2.082,2.866,2.866,0,0,0-2.221-.694,3.694,3.694,0,0,0-1.666.417,3.025,3.025,0,0,0-1.25.972,2.24,2.24,0,0,0-.416,1.249h1.388a1.048,1.048,0,0,1,.555-.972A1.938,1.938,0,0,1,410.71,139a2.344,2.344,0,0,1,1.388.417,1.7,1.7,0,0,1,.417,1.249v.694h-1.388a5.107,5.107,0,0,0-2.776.694,2.5,2.5,0,0,0-.972,2.082,2.239,2.239,0,0,0,.833,1.8,3.41,3.41,0,0,0,2.082.694,3.178,3.178,0,0,0,2.36-1.111c0,.417.139.694.139.972h1.527v-.139a6.437,6.437,0,0,1-.277-1.944v-3.887Zm-1.388,3.609a1.867,1.867,0,0,1-.833.972,2.239,2.239,0,0,1-1.249.417A1.433,1.433,0,0,1,408.906,144c0-1.111.833-1.666,2.637-1.666h1.111v1.8Zm7.5-6.386a2.965,2.965,0,0,0-2.36,1.111v-4.581h-1.388v12.355h1.249l.139-.972a3.09,3.09,0,0,0,4.858-.139,5.441,5.441,0,0,0,.833-3.193V142.2a5.92,5.92,0,0,0-.833-3.331,3.476,3.476,0,0,0-2.5-1.111m1.249,6.941a1.979,1.979,0,0,1-1.666.833,2.078,2.078,0,0,1-2.082-1.388v-3.748A2.078,2.078,0,0,1,419.594,139a1.979,1.979,0,0,1,1.666.833,3.974,3.974,0,0,1,.555,2.36,4.177,4.177,0,0,1-.555,2.5m7.219-6.941a3.187,3.187,0,0,0-1.944.555,4.953,4.953,0,0,0-1.388,1.527,5.985,5.985,0,0,0-.416,2.36v.139a4.44,4.44,0,0,0,1.11,3.193,3.5,3.5,0,0,0,2.776,1.249,3.187,3.187,0,0,0,1.944-.555,4.953,4.953,0,0,0,1.388-1.527,5.749,5.749,0,0,0,.417-2.221v-.139a5.068,5.068,0,0,0-1.11-3.332,3.31,3.31,0,0,0-2.776-1.249m1.8,6.941a2.082,2.082,0,0,1-3.332,0,3.97,3.97,0,0,1-.694-2.36,4.121,4.121,0,0,1,.694-2.5,1.978,1.978,0,0,1,1.666-.833,2.442,2.442,0,0,1,1.8.833,3.97,3.97,0,0,1,.694,2.36,5.268,5.268,0,0,1-.833,2.5m6.525-.139-2.082-6.664H433.2l3.054,8.746h1.111l3.054-8.746h-1.527Zm8.052-6.8a2.789,2.789,0,0,0-1.8.555,7.27,7.27,0,0,0-1.388,1.527,5.986,5.986,0,0,0-.417,2.36v.278a4.321,4.321,0,0,0,1.111,3.054,3.385,3.385,0,0,0,2.776,1.111,3.554,3.554,0,0,0,3.193-1.666l-.833-.694a1.865,1.865,0,0,1-.972.833,2.063,2.063,0,0,1-1.25.278,2.445,2.445,0,0,1-1.8-.833,3.412,3.412,0,0,1-.694-2.082h5.692v-.555a4.406,4.406,0,0,0-.972-3.193,4.074,4.074,0,0,0-2.638-.972m2.082,3.748h-4.165a3.093,3.093,0,0,1,.694-1.8A1.928,1.928,0,0,1,444.86,139a1.609,1.609,0,0,1,1.388.555,2.745,2.745,0,0,1,.694,1.943m9.162,3.748a1.175,1.175,0,0,1-.278-.833V139h1.527v-1.111h-1.527v-2.082h-1.388v2.082h-1.527V139h1.527v5.414a2.214,2.214,0,0,0,.555,1.666,1.61,1.61,0,0,0,1.388.555,3.051,3.051,0,0,0,1.111-.139v-1.11a6,6,0,0,0-.694.139,1.06,1.06,0,0,1-.694-.277m6.941-7.5a3.153,3.153,0,0,0-2.5,1.249v-4.72h-1.388v12.355h1.388v-6.247a1.864,1.864,0,0,1,.833-.972,1.937,1.937,0,0,1,1.249-.417,1.7,1.7,0,0,1,1.249.417,1.841,1.841,0,0,1,.417,1.388V146.5h1.388v-5.691c0-1.944-.833-3.054-2.638-3.054m8.052,0a2.789,2.789,0,0,0-1.8.555,7.279,7.279,0,0,0-1.388,1.527,5.985,5.985,0,0,0-.417,2.36v.278a4.321,4.321,0,0,0,1.111,3.054,3.385,3.385,0,0,0,2.776,1.111,3.554,3.554,0,0,0,3.193-1.666l-.833-.694a1.865,1.865,0,0,1-.972.833,2.062,2.062,0,0,1-1.249.278,2.444,2.444,0,0,1-1.8-.833,3.409,3.409,0,0,1-.694-2.082h5.691v-.555a4.406,4.406,0,0,0-.972-3.193,4.074,4.074,0,0,0-2.638-.972m2.082,3.748h-4.164a3.088,3.088,0,0,1,.694-1.8A1.927,1.927,0,0,1,471.1,139a1.609,1.609,0,0,1,1.388.555,2.744,2.744,0,0,1,.694,1.943m8.468-2.5v-.972h-1.388v8.746h1.388V140.67a1.853,1.853,0,0,1,1.944-1.249h.694v-1.388a1.039,1.039,0,0,0-.694-.139A1.786,1.786,0,0,0,481.647,139m7.08-1.249a2.79,2.79,0,0,0-1.8.555,7.29,7.29,0,0,0-1.388,1.527,5.986,5.986,0,0,0-.416,2.36v.278a4.321,4.321,0,0,0,1.11,3.054A3.386,3.386,0,0,0,489,146.639a3.555,3.555,0,0,0,3.193-1.666l-.833-.694a1.864,1.864,0,0,1-.972.833,2.062,2.062,0,0,1-1.25.278,2.445,2.445,0,0,1-1.8-.833,3.409,3.409,0,0,1-.694-2.082h5.692v-.555a4.406,4.406,0,0,0-.972-3.193,4.074,4.074,0,0,0-2.637-.972m1.943,3.748h-4.164a3.088,3.088,0,0,1,.694-1.8,1.927,1.927,0,0,1,1.388-.694,1.61,1.61,0,0,1,1.388.555,2.255,2.255,0,0,1,.694,1.943m8.191.694a4.618,4.618,0,0,0-1.8-.555,3.2,3.2,0,0,1-1.527-.555.84.84,0,0,1-.416-.833,1.261,1.261,0,0,1,.416-.972,2.083,2.083,0,0,1,2.5,0,1.715,1.715,0,0,1,.555,1.111h1.388a2.52,2.52,0,0,0-.833-1.944,3.208,3.208,0,0,0-2.36-.694,3.532,3.532,0,0,0-2.221.694,2.444,2.444,0,0,0-.833,1.8,2.616,2.616,0,0,0,.277,1.11,3.007,3.007,0,0,0,.972.833,4.68,4.68,0,0,0,1.666.555,6.017,6.017,0,0,1,1.527.555,1.26,1.26,0,0,1,.416.972,1.048,1.048,0,0,1-.555.972c-.278.277-.694.277-1.249.277a2.071,2.071,0,0,1-1.388-.417,1.353,1.353,0,0,1-.555-1.249h-1.388a2.345,2.345,0,0,0,.417,1.388,2.216,2.216,0,0,0,1.249.972,6.892,6.892,0,0,0,1.8.417,4.3,4.3,0,0,0,2.36-.694,2.239,2.239,0,0,0,.833-1.8,4.057,4.057,0,0,0-.278-1.249c-.277-.139-.555-.416-.972-.694m5.969,3.332a1.061,1.061,0,0,1-.694-.277,1.175,1.175,0,0,1-.277-.833V139h1.527v-1.111h-1.527v-2.082h-1.388v2.082h-1.527V139h1.527v5.414a2.213,2.213,0,0,0,.555,1.666,1.783,1.783,0,0,0,1.388.555,3.051,3.051,0,0,0,1.111-.139v-1.11a1.51,1.51,0,0,1-.694.139" transform="translate(-228.022 -81.949)" fill="#494949"/>
            <path id="Path_3" data-name="Path 3" d="M200.891,154.569h55.25v-.555h-55.25Zm208.509-.694v.694h58.721v-.555H409.4Z" transform="translate(-122.597 -93.904)" fill="#8d8d8d"/>
            <path id="Path_4" data-name="Path 4" d="M98.65,29.208,87.267,40.73,98.65,52.114,109.895,40.73Z" transform="translate(-53.256 -17.825)" fill="#fc697a" fill-rule="evenodd"/>
            <path id="Path_5" data-name="Path 5" d="M87.267,40.73,98.65,52.114V29.208Z" transform="translate(-53.256 -17.825)" fill="#fc4045" fill-rule="evenodd"/>
            <path id="Path_6" data-name="Path 6" d="M69.442,0,58.059,11.384,69.442,22.767,80.687,11.384Z" transform="translate(-35.431 0)" fill="#fc697a" fill-rule="evenodd"/>
            <path id="Path_7" data-name="Path 7" d="M58.059,11.384,69.443,22.767V0Z" transform="translate(-35.431 0)" fill="#494949" fill-rule="evenodd"/>
            <path id="Path_8" data-name="Path 8" d="M40.452,29.208,29.207,40.73,40.452,52.114,51.7,40.73Z" transform="translate(-17.824 -17.825)" fill="#605e5e" fill-rule="evenodd"/>
            <path id="Path_9" data-name="Path 9" d="M29.208,40.73,40.452,52.114V29.208Z" transform="translate(-17.824 -17.825)" fill="#494949" fill-rule="evenodd"/>
            <path id="Path_10" data-name="Path 10" d="M11.244,58.772,0,70.155,11.244,81.538,22.628,70.155Z" transform="translate(0 -35.866)" fill="#605e5e" fill-rule="evenodd"/>
            <path id="Path_11" data-name="Path 11" d="M0,70.155,11.245,81.539V58.772Z" transform="translate(0 -35.866)" fill="#494949" fill-rule="evenodd"/>
            <path id="Path_12" data-name="Path 12" d="M40.452,87.98,29.207,99.5l11.245,11.383L51.7,99.5Z" transform="translate(-17.824 -53.691)" fill="#605e5e" fill-rule="evenodd"/>
            <path id="Path_13" data-name="Path 13" d="M29.208,99.5l11.245,11.383V87.98Z" transform="translate(-17.824 -53.691)" fill="#494949" fill-rule="evenodd"/>
            <path id="Path_14" data-name="Path 14" d="M69.442,117.544,58.059,128.927,69.442,140.31l11.245-11.383Z" transform="translate(-35.431 -71.733)" fill="#fc697a" fill-rule="evenodd"/>
            <path id="Path_15" data-name="Path 15" d="M58.059,128.927,69.443,140.31V117.543Z" transform="translate(-35.431 -71.732)" fill="#494949" fill-rule="evenodd"/>
            <path id="Path_16" data-name="Path 16" d="M98.65,87.98,87.267,99.5,98.65,110.885,109.895,99.5Z" transform="translate(-53.256 -53.691)" fill="#fc697a" fill-rule="evenodd"/>
            <path id="Path_17" data-name="Path 17" d="M87.267,99.5,98.65,110.885V87.98Z" transform="translate(-53.256 -53.691)" fill="#fc4045" fill-rule="evenodd"/>
          </g>
        </g>
      </g>
    </g>
  </g>
</svg>
